<?xml version="1.0" standalone="no"?>
<!DOCTYPE svg PUBLIC "-//W3C//DTD SVG 20010904//EN"
 "http://www.w3.org/TR/2001/REC-SVG-20010904/DTD/svg10.dtd">
<svg version="1.0" xmlns="http://www.w3.org/2000/svg"
 width="512.000000pt" height="512.000000pt" viewBox="0 0 512.000000 512.000000"
 preserveAspectRatio="xMidYMid meet">
<metadata>
Created by potrace 1.14, written by Peter Selinger 2001-2017
</metadata>
<g transform="translate(0.000000,512.000000) scale(0.100000,-0.100000)"
fill="#000000" stroke="none">
<path d="M3150 4781 c-23 -18 -25 -27 -28 -118 l-4 -98 -71 35 c-65 32 -78 35
-161 35 -96 0 -166 -19 -216 -58 l-25 -19 -5 59 c-6 72 -27 98 -79 97 -29 0
-70 -23 -218 -122 l-183 -122 0 90 c0 141 -21 166 -136 155 -66 -6 -151 -38
-214 -80 l-50 -34 0 25 c0 37 -26 81 -52 88 -13 3 -135 6 -271 6 -310 0 -317
-2 -317 -109 l0 -47 -69 34 c-153 76 -347 40 -462 -85 -73 -79 -109 -174 -106
-285 3 -110 36 -185 117 -267 87 -88 156 -116 286 -116 83 0 96 3 161 35 l71
35 4 -58 c7 -95 -4 -92 311 -95 310 -2 314 -2 324 75 l5 40 49 -33 c87 -59
238 -98 299 -79 34 11 50 57 50 145 0 44 2 80 4 80 6 0 98 -56 241 -147 95
-61 128 -77 158 -77 52 -1 76 31 77 100 l0 50 72 -35 c68 -34 77 -36 169 -36
90 0 101 3 167 36 l70 34 4 -97 c4 -138 -4 -132 220 -136 100 -2 192 -1 205 2
46 12 53 48 53 271 l0 205 485 0 c529 0 537 1 551 55 9 35 -14 85 -43 96 -14
5 -239 9 -508 9 l-484 0 -3 220 c-3 195 -5 221 -21 237 -16 16 -41 18 -210 21
-178 2 -194 1 -217 -17z"/>
<path d="M2178 3515 c-2 -2 -77 -6 -168 -9 -90 -4 -178 -9 -195 -11 -16 -2
-71 -7 -121 -10 -49 -3 -101 -7 -115 -9 -13 -3 -53 -7 -89 -11 -165 -18 -301
-35 -385 -51 -10 -2 -36 -6 -57 -9 -31 -5 -216 -43 -290 -60 -131 -30 -309
-93 -398 -142 -96 -52 -145 -96 -175 -157 -26 -53 -26 -56 -21 -222 3 -93 7
-180 9 -194 2 -14 7 -45 11 -70 32 -190 124 -421 234 -585 119 -177 227 -286
442 -443 123 -90 363 -200 582 -267 l87 -27 -205 -411 c-181 -360 -205 -414
-199 -444 10 -56 38 -63 242 -63 153 0 181 3 200 18 11 9 71 117 132 240 l111
222 750 0 750 0 115 -230 c92 -184 121 -233 141 -240 14 -6 106 -10 205 -10
177 0 180 0 202 24 12 13 23 36 25 50 1 17 -69 168 -203 435 l-204 409 147 47
c81 27 154 52 162 56 8 5 60 29 115 55 385 181 672 470 820 828 89 214 119
370 119 616 1 180 0 186 -23 220 -89 127 -261 210 -611 295 -97 23 -393 76
-500 89 -25 3 -58 8 -75 10 -16 2 -64 7 -105 11 -41 3 -86 8 -100 10 -30 4
-117 12 -255 21 -55 4 -122 9 -150 11 -62 5 -952 12 -957 8z m12 -2382 c104
-9 616 -9 725 -1 50 4 119 10 155 13 l65 7 47 -96 48 -96 -670 0 -670 0 48 96
47 95 65 -6 c36 -3 99 -9 140 -12z"/>
</g>
</svg>
